<?xml version="1.0" encoding="utf-8"?>
<!-- Generator: Adobe Illustrator 26.0.1, SVG Export Plug-In . SVG Version: 6.00 Build 0)  -->
<svg version="1.1" id="Layer_1" xmlns="http://www.w3.org/2000/svg" xmlns:xlink="http://www.w3.org/1999/xlink" x="0px" y="0px"
	 viewBox="0 0 16 16" style="enable-background:new 0 0 16 16;" xml:space="preserve">
<style type="text/css">
	.st0{fill:none;stroke:#80FF45;stroke-width:2;stroke-linejoin:round;}
</style>
<g>
	<rect x="4.5" y="4.5" transform="matrix(-1.836970e-16 1 -1 -1.836970e-16 19.5 3.5)" class="st0" width="7" height="14"/>
	<rect x="4.5" y="-2.5" transform="matrix(-1.836970e-16 1 -1 -1.836970e-16 12.5 -3.5)" class="st0" width="7" height="14"/>
</g>
<g>
	<rect x="8" y="1" transform="matrix(-1 -1.224647e-16 1.224647e-16 -1 23 16)" class="st0" width="7" height="14"/>
	<rect x="1" y="1" transform="matrix(-1 -1.224647e-16 1.224647e-16 -1 9 16)" class="st0" width="7" height="14"/>
</g>
<g>
	<g>
		<rect x="40.7" y="1" transform="matrix(-1.836970e-16 1 -1 -1.836970e-16 51 -35)" class="st0" width="4.7" height="14"/>
		
			<rect x="40.7" y="5.7" transform="matrix(-1.836970e-16 1 -1 -1.836970e-16 55.6667 -30.3333)" class="st0" width="4.7" height="14"/>
		
			<rect x="40.7" y="-3.7" transform="matrix(-1.836970e-16 1 -1 -1.836970e-16 46.3333 -39.6667)" class="st0" width="4.7" height="14"/>
	</g>
	<g>
		<rect x="40.7" y="1" transform="matrix(-1 -1.224647e-16 1.224647e-16 -1 86 16)" class="st0" width="4.7" height="14"/>
		<rect x="36" y="1" transform="matrix(-1 -1.224647e-16 1.224647e-16 -1 76.6667 16)" class="st0" width="4.7" height="14"/>
		<rect x="45.3" y="1" transform="matrix(-1 -1.224647e-16 1.224647e-16 -1 95.3333 16)" class="st0" width="4.7" height="14"/>
	</g>
</g>
</svg>
